<?xml version="1.0" encoding="utf-8"?>
<!-- Generator: Adobe Illustrator 27.5.0, SVG Export Plug-In . SVG Version: 6.00 Build 0)  -->
<svg version="1.1" xmlns="http://www.w3.org/2000/svg" xmlns:xlink="http://www.w3.org/1999/xlink" x="0px" y="0px"
	 viewBox="0 0 750 500" style="enable-background:new 0 0 750 500;" xml:space="preserve">
<g id="BACKGROUND">
	<rect style="fill:#F1F1F1;" width="750" height="500"/>
</g>
<g id="OBJECTS">
	<g>
		<defs>
			<rect id="SVGID_1_" width="750" height="500"/>
		</defs>
		<clipPath id="SVGID_00000168802827837587368450000009178014228270819730_">
			<use xlink:href="#SVGID_1_"  style="overflow:visible;"/>
		</clipPath>
		<g style="clip-path:url(#SVGID_00000168802827837587368450000009178014228270819730_);">
			<g>
				<path style="fill:none;stroke:#BFBFBF;stroke-miterlimit:10;" d="M-188.353,438.263L82.52-266.977
					c6.639-17.285,26.034-25.916,43.319-19.277L919.076,18.417c17.285,6.639,25.916,26.034,19.277,43.319L667.48,766.977
					c-6.639,17.285-26.034,25.916-43.319,19.277l-793.236-304.671C-186.361,474.943-194.992,455.549-188.353,438.263z"/>
				<path style="fill:none;stroke:#C0C0C0;stroke-miterlimit:10;" d="M-163.803,444.764L82.446-243.595
					c6.035-17.397,25.032-26.608,42.429-20.572L893.23,12.807c17.397,6.035,26.608,25.032,20.572,42.429L667.554,743.595
					c-6.036,17.397-25.032,26.608-42.429,20.572L-143.23,487.193C-160.628,481.158-169.838,462.162-163.803,444.764z"/>
				<path style="fill:none;stroke:#C2C2C2;stroke-miterlimit:10;" d="M-139.253,451.265L82.371-220.213
					c5.432-17.509,24.03-27.3,41.539-21.868L867.385,7.196c17.509,5.432,27.3,24.029,21.868,41.539L667.629,720.213
					c-5.432,17.509-24.03,27.3-41.539,21.868l-743.475-249.276C-134.894,487.372-144.685,468.775-139.253,451.265z"/>
				<path style="fill:none;stroke:#C3C3C3;stroke-miterlimit:10;" d="M-114.702,457.766L82.296-196.831
					c4.828-17.621,23.027-27.992,40.649-23.163L841.539,1.585c17.621,4.828,27.992,23.027,23.163,40.649L667.704,696.831
					c-4.828,17.621-23.027,27.992-40.649,23.163L-91.539,498.415C-109.16,493.586-119.531,475.387-114.702,457.766z"/>
				<path style="fill:none;stroke:#C4C4C4;stroke-miterlimit:10;" d="M-90.152,464.267L82.222-173.449
					c4.225-17.733,22.025-28.684,39.758-24.459L815.693-4.026C833.426,0.199,844.377,18,840.152,35.733L667.778,673.449
					c-4.225,17.733-22.025,28.684-39.758,24.459L-65.693,504.026C-83.427,499.801-94.377,482-90.152,464.267z"/>
				<path style="fill:none;stroke:#C5C5C5;stroke-miterlimit:10;" d="M-65.602,470.768L82.147-150.067
					c3.621-17.845,21.023-29.376,38.868-25.754L789.848-9.637c17.845,3.621,29.376,21.023,25.754,38.868L667.853,650.066
					c-3.621,17.845-21.023,29.376-38.868,25.754L-39.848,509.636C-57.693,506.015-69.224,488.613-65.602,470.768z"/>
				<path style="fill:none;stroke:#C6C6C6;stroke-miterlimit:10;" d="M-41.052,477.269L82.072-126.685
					c3.018-17.957,20.021-30.068,37.978-27.05L764.002-15.247c17.957,3.018,30.068,20.021,27.05,37.978L667.928,626.684
					c-3.018,17.957-20.021,30.068-37.978,27.05L-14.002,515.247C-31.959,512.229-44.07,495.226-41.052,477.269z"/>
				<path style="fill:none;stroke:#C7C7C7;stroke-miterlimit:10;" d="M-16.502,483.77l98.499-587.073
					c2.414-18.069,19.019-30.759,37.088-28.345l619.071,110.79c18.069,2.414,30.759,19.019,28.345,37.088l-98.499,587.073
					c-2.414,18.069-19.019,30.759-37.088,28.345L11.843,520.858C-6.226,518.444-18.916,501.839-16.502,483.77z"/>
				<path style="fill:none;stroke:#C9C9C9;stroke-miterlimit:10;" d="M8.048,490.271L81.923-79.92
					c1.811-18.181,18.017-31.451,36.198-29.641l594.19,83.092c18.181,1.811,31.451,18.017,29.641,36.198L668.077,579.92
					c-1.811,18.181-18.017,31.451-36.198,29.641l-594.19-83.092C19.508,524.658,6.238,508.452,8.048,490.271z"/>
				<path style="fill:none;stroke:#CACACA;stroke-miterlimit:10;" d="M32.598,496.772l49.25-553.31
					c1.207-18.293,17.015-32.143,35.308-30.936l569.31,55.395c18.293,1.207,32.143,17.015,30.936,35.307l-49.25,553.31
					c-1.207,18.293-17.015,32.143-35.308,30.936L63.535,532.08C45.242,530.873,31.391,515.065,32.598,496.772z"/>
				<path style="fill:none;stroke:#CBCBCB;stroke-miterlimit:10;" d="M57.148,503.273L81.773-33.156
					c0.604-18.405,16.013-32.835,34.417-32.232L660.62-37.691c18.405,0.604,32.835,16.013,32.232,34.417l-24.625,536.429
					c-0.604,18.405-16.013,32.835-34.417,32.232L89.38,537.69C70.976,537.087,56.545,521.678,57.148,503.273z"/>
				<path style="fill:none;stroke:#CCCCCC;stroke-miterlimit:10;" d="M81.699,509.774V-9.774c0-18.517,15.011-33.527,33.527-33.527
					h519.548c18.517,0,33.527,15.011,33.527,33.527v519.548c0,18.517-15.011,33.527-33.527,33.527H115.226
					C96.709,543.301,81.699,528.291,81.699,509.774z"/>
				<path style="fill:none;stroke:#CDCDCD;stroke-miterlimit:10;" d="M98.659,507.712L85.405,8.214
					c-0.738-18.346,13.537-33.817,31.883-34.555l499.498-13.255c18.346-0.738,33.817,13.537,34.555,31.883l13.255,499.498
					c0.738,18.346-13.537,33.817-31.883,34.555l-499.498,13.255C114.868,540.333,99.397,526.059,98.659,507.712z"/>
				<path style="fill:none;stroke:#CECECE;stroke-miterlimit:10;" d="M115.62,505.651L89.11,26.202
					C87.635,8.026,101.173-7.905,119.349-9.38L598.798-35.89c18.176-1.476,34.107,12.063,35.582,30.239l26.509,479.449
					c1.476,18.176-12.063,34.107-30.239,35.582l-479.449,26.509C133.026,537.365,117.095,523.827,115.62,505.651z"/>
				<path style="fill:none;stroke:#CFCFCF;stroke-miterlimit:10;" d="M132.58,503.589L92.816,44.19
					c-2.213-18.006,10.589-34.396,28.594-36.61L580.81-32.184c18.006-2.213,34.396,10.589,36.61,28.594l39.764,459.399
					c2.213,18.006-10.589,34.397-28.594,36.61L169.19,532.184C151.185,534.397,134.794,521.595,132.58,503.589z"/>
				<path style="fill:none;stroke:#D1D1D1;stroke-miterlimit:10;" d="M149.541,501.527L96.522,62.178
					c-2.951-17.835,9.115-34.686,26.95-37.637l439.349-53.019c17.835-2.951,34.686,9.115,37.637,26.95l53.019,439.349
					c2.951,17.835-9.115,34.686-26.95,37.637l-439.349,53.019C169.343,531.429,152.492,519.363,149.541,501.527z"/>
				<path style="fill:none;stroke:#D2D2D2;stroke-miterlimit:10;" d="M166.502,499.466L100.228,80.167
					c-3.689-17.665,7.641-34.976,25.306-38.665l419.299-66.273c17.665-3.689,34.976,7.641,38.665,25.306l66.273,419.299
					c3.689,17.665-7.641,34.976-25.306,38.665l-419.299,66.273C187.502,528.461,170.191,517.131,166.502,499.466z"/>
				<path style="fill:none;stroke:#D3D3D3;stroke-miterlimit:10;" d="M183.462,497.404L103.934,98.155
					c-4.427-17.495,6.167-35.266,23.662-39.692l399.249-79.528c17.495-4.427,35.266,6.167,39.692,23.662l79.528,399.249
					c4.427,17.495-6.167,35.266-23.662,39.692l-399.249,79.528C205.66,525.493,187.889,514.899,183.462,497.404z"/>
				<path style="fill:none;stroke:#D4D4D4;stroke-miterlimit:10;" d="M200.423,495.343l-92.783-379.2
					c-5.165-17.325,4.693-35.555,22.017-40.72l379.2-92.783c17.324-5.165,35.555,4.693,40.72,22.017l92.783,379.2
					c5.165,17.324-4.693,35.555-22.017,40.72l-379.2,92.783C223.818,522.524,205.587,512.667,200.423,495.343z"/>
				<path style="fill:none;stroke:#D5D5D5;stroke-miterlimit:10;" d="M217.384,493.281l-106.038-359.15
					c-5.902-17.154,3.219-35.845,20.373-41.747l359.15-106.038c17.154-5.902,35.845,3.219,41.747,20.373l106.038,359.15
					c5.902,17.154-3.219,35.845-20.373,41.747l-359.15,106.038C241.977,519.556,223.286,510.435,217.384,493.281z"/>
				<path style="fill:none;stroke:#D6D6D6;stroke-miterlimit:10;" d="M234.344,491.219l-119.292-339.1
					c-6.64-16.984,1.745-36.135,18.729-42.775l339.1-119.292c16.984-6.64,36.135,1.745,42.775,18.729l119.292,339.1
					c6.64,16.984-1.745,36.135-18.729,42.775l-339.1,119.292C260.135,516.588,240.984,508.203,234.344,491.219z"/>
				<path style="fill:none;stroke:#D8D8D8;stroke-miterlimit:10;" d="M251.305,489.158l-132.547-319.05
					c-7.378-16.814,0.271-36.425,17.085-43.803L454.892-6.242c16.814-7.378,36.425,0.271,43.803,17.085l132.547,319.05
					c7.378,16.814-0.271,36.425-17.085,43.803l-319.05,132.547C278.294,513.62,258.683,505.971,251.305,489.158z"/>
				<path style="fill:none;stroke:#D9D9D9;stroke-miterlimit:10;" d="M268.265,487.096l-145.802-299
					c-8.116-16.643-1.203-36.714,15.44-44.83l299-145.802c16.643-8.116,36.714-1.203,44.83,15.44l145.802,299
					c8.116,16.643,1.203,36.714-15.44,44.83l-299,145.802C296.452,510.652,276.381,503.739,268.265,487.096z"/>
				<path style="fill:none;stroke:#DADADA;stroke-miterlimit:10;" d="M320.878,494.972c-16.321,8.568-36.497,2.284-45.065-14.037
					L130.028,195.878c-8.568-16.321-2.284-36.497,14.037-45.065L429.121,5.028c16.321-8.568,36.497-2.284,45.065,14.037
					l145.785,285.057c8.568,16.321,2.284,36.497-14.037,45.065L320.878,494.972z"/>
				<path style="fill:none;stroke:#DBDBDB;stroke-miterlimit:10;" d="M328.661,487.408c-15.998,9.021-36.279,3.365-45.3-12.633
					L137.592,203.661c-9.021-15.998-3.365-36.279,12.633-45.3L421.339,12.592c15.998-9.021,36.279-3.365,45.3,12.633
					l145.769,271.114c9.021,15.998,3.365,36.279-12.633,45.3L328.661,487.408z"/>
				<path style="fill:none;stroke:#DCDCDC;stroke-miterlimit:10;" d="M336.444,479.844c-15.675,9.473-36.062,4.446-45.535-11.229
					l-145.753-257.17c-9.473-15.675-4.446-36.062,11.229-45.535l257.17-145.753c15.675-9.473,36.062-4.446,45.535,11.229
					l145.753,257.17c9.473,15.675,4.446,36.062-11.229,45.535L336.444,479.844z"/>
				<path style="fill:none;stroke:#DDDDDD;stroke-miterlimit:10;" d="M344.227,472.28c-15.352,9.926-35.844,5.527-45.77-9.826
					L152.72,219.227c-9.926-15.352-5.527-35.844,9.826-45.77L405.773,27.72c15.352-9.926,35.844-5.527,45.77,9.826L597.28,280.773
					c9.926,15.352,5.527,35.844-9.826,45.77L344.227,472.28z"/>
				<path style="fill:none;stroke:#DFDFDF;stroke-miterlimit:10;" d="M352.01,464.716c-15.03,10.378-35.627,6.607-46.005-8.422
					L160.284,227.01c-10.378-15.03-6.607-35.627,8.422-46.005L397.99,35.284c15.03-10.378,35.627-6.607,46.005,8.422L589.716,272.99
					c10.378,15.03,6.608,35.627-8.422,46.005L352.01,464.716z"/>
				<path style="fill:none;stroke:#E0E0E0;stroke-miterlimit:10;" d="M359.793,457.151c-14.707,10.831-35.409,7.689-46.24-7.018
					l-145.704-215.34c-10.831-14.707-7.689-35.409,7.018-46.24l215.34-145.704c14.707-10.831,35.409-7.689,46.24,7.018
					l145.704,215.34c10.831,14.707,7.689,35.409-7.018,46.24L359.793,457.151z"/>
				<path style="fill:none;stroke:#E1E1E1;stroke-miterlimit:10;" d="M367.576,449.587c-14.384,11.283-35.192,8.77-46.475-5.615
					L175.413,242.576c-11.283-14.384-8.77-35.192,5.615-46.475L382.424,50.413c14.384-11.283,35.192-8.77,46.475,5.615
					l145.688,201.397c11.283,14.384,8.77,35.192-5.615,46.475L367.576,449.587z"/>
				<path style="fill:none;stroke:#E2E2E2;stroke-miterlimit:10;" d="M375.359,442.023c-14.061,11.736-34.974,9.85-46.71-4.211
					L182.977,250.359c-11.736-14.061-9.85-34.974,4.211-46.71L374.641,57.977c14.061-11.736,34.974-9.85,46.71,4.211
					l145.672,187.454c11.736,14.061,9.85,34.974-4.211,46.71L375.359,442.023z"/>
				<path style="fill:none;stroke:#E3E3E3;stroke-miterlimit:10;" d="M383.141,434.459c-13.739,12.188-34.757,10.931-46.945-2.807
					l-145.656-173.51c-12.188-13.739-10.931-34.756,2.807-46.945l173.51-145.656c13.739-12.188,34.756-10.931,46.945,2.807
					l145.656,173.51c12.188,13.739,10.931,34.757-2.807,46.945L383.141,434.459z"/>
				<path style="fill:none;stroke:#E4E4E4;stroke-miterlimit:10;" d="M390.924,426.895c-13.416,12.641-34.539,12.012-47.18-1.404
					l-145.64-159.567c-12.641-13.416-12.012-34.539,1.404-47.18l159.567-145.64c13.416-12.641,34.539-12.012,47.18,1.404
					l145.64,159.567c12.641,13.416,12.012,34.539-1.404,47.18L390.924,426.895z"/>
				<path style="fill:none;stroke:#E5E5E5;stroke-miterlimit:10;" d="M351.293,419.331L205.669,273.707
					c-13.093-13.093-13.093-34.321,0-47.415L351.293,80.669c13.093-13.093,34.321-13.093,47.415,0l145.624,145.624
					c13.093,13.093,13.093,34.321,0,47.415L398.707,419.331C385.614,432.424,364.386,432.424,351.293,419.331z"/>
			</g>
			<g>
				<g>
					<polyline style="fill:none;stroke:#999999;stroke-width:0.5;stroke-miterlimit:10;" points="-52.123,141.496 49.263,122.303 
						156.94,-18.676 250.547,112.089 347.394,71.362 403.185,-20.214 517.055,122.23 604.716,86.82 681.007,121.589 772.461,83.484 
											"/>
					<polyline style="fill:none;stroke:#999999;stroke-width:0.5;stroke-miterlimit:10;" points="604.716,86.82 716.886,-1.44 
						681.007,121.589 					"/>
					<polyline style="fill:none;stroke:#999999;stroke-width:0.5;stroke-miterlimit:10;" points="517.055,122.23 596.042,-20.322 
						604.716,86.82 					"/>
					<polyline style="fill:none;stroke:#999999;stroke-width:0.5;stroke-miterlimit:10;" points="347.394,71.362 307.084,-15.035 
						250.547,112.089 					"/>
					
						<line style="fill:none;stroke:#999999;stroke-width:0.5;stroke-miterlimit:10;" x1="49.263" y1="122.303" x2="-39.145" y2="49.685"/>
				</g>
				<g>
					<polyline style="fill:#E5E5E5;" points="750,0.088 750,104.229 657.124,0.088 577.845,52.159 472.044,75.06 354.592,17.787 
						270.767,88.173 226.612,67.099 127.263,122.293 46.981,61.191 0,53.05 0,0.088 					"/>
					<g>
						
							<linearGradient id="SVGID_00000131363347556700900870000008334000856982195349_" gradientUnits="userSpaceOnUse" x1="270.767" y1="833.7531" x2="355.032" y2="833.7531" gradientTransform="matrix(1 0 0 -1 0 877.8839)">
							<stop  offset="0" style="stop-color:#FFFFFF"/>
							<stop  offset="0.15" style="stop-color:#F8F8F8"/>
							<stop  offset="0.4646" style="stop-color:#EFEFEF"/>
							<stop  offset="1" style="stop-color:#EDEDED"/>
						</linearGradient>
						<polygon style="opacity:0.7;fill:url(#SVGID_00000131363347556700900870000008334000856982195349_);" points="270.767,88.173 
							275.874,0.088 355.032,18.018 						"/>
						
							<linearGradient id="SVGID_00000105408990394730143150000005384815425506149034_" gradientUnits="userSpaceOnUse" x1="72.9965" y1="844.0311" x2="226.7985" y2="844.0311" gradientTransform="matrix(1 0 0 -1 0 877.8839)">
							<stop  offset="0" style="stop-color:#FFFFFF"/>
							<stop  offset="0.15" style="stop-color:#F8F8F8"/>
							<stop  offset="0.4646" style="stop-color:#EFEFEF"/>
							<stop  offset="1" style="stop-color:#EDEDED"/>
						</linearGradient>
						<polyline style="opacity:0.7;fill:url(#SVGID_00000105408990394730143150000005384815425506149034_);" points="72.997,0.088 
							226.798,67.617 212.539,0.088 						"/>
						
							<linearGradient id="SVGID_00000067196882839760870320000002816940447165057458_" gradientUnits="userSpaceOnUse" x1="0" y1="847.4024" x2="72.9965" y2="847.4024" gradientTransform="matrix(1 0 0 -1 0 877.8839)">
							<stop  offset="0" style="stop-color:#FFFFFF"/>
							<stop  offset="0.15" style="stop-color:#F8F8F8"/>
							<stop  offset="0.4646" style="stop-color:#EFEFEF"/>
							<stop  offset="1" style="stop-color:#EDEDED"/>
						</linearGradient>
						<polygon style="opacity:0.7;fill:url(#SVGID_00000067196882839760870320000002816940447165057458_);" points="0,53.235 
							46.652,60.963 72.997,0 						"/>
						
							<linearGradient id="SVGID_00000117636493597048853150000015849244078038303658_" gradientUnits="userSpaceOnUse" x1="479.515" y1="830.4315" x2="391.2905" y2="887.7452" gradientTransform="matrix(1 0 0 -1 0 877.8839)">
							<stop  offset="0" style="stop-color:#FFFFFF"/>
							<stop  offset="0.15" style="stop-color:#F8F8F8"/>
							<stop  offset="0.4646" style="stop-color:#EFEFEF"/>
							<stop  offset="1" style="stop-color:#EDEDED"/>
						</linearGradient>
						<polygon style="opacity:0.7;fill:url(#SVGID_00000117636493597048853150000015849244078038303658_);" points="472.044,75.06 
							493.444,23.851 356.347,0.088 						"/>
						
							<linearGradient id="SVGID_00000105416331773239243680000012402833384170512050_" gradientUnits="userSpaceOnUse" x1="493.4441" y1="851.7602" x2="656.6334" y2="851.7602" gradientTransform="matrix(1 0 0 -1 0 877.8839)">
							<stop  offset="0" style="stop-color:#FFFFFF"/>
							<stop  offset="0.15" style="stop-color:#F8F8F8"/>
							<stop  offset="0.4646" style="stop-color:#EFEFEF"/>
							<stop  offset="1" style="stop-color:#EDEDED"/>
						</linearGradient>
						<polygon style="opacity:0.7;fill:url(#SVGID_00000105416331773239243680000012402833384170512050_);" points="577.845,52.159 
							493.444,23.851 656.633,0.088 						"/>
						
							<linearGradient id="SVGID_00000162325185625600467930000001634550299956072622_" gradientUnits="userSpaceOnUse" x1="677.5125" y1="886.2047" x2="792.8427" y2="831.4023" gradientTransform="matrix(1 0 0 -1 0 877.8839)">
							<stop  offset="0" style="stop-color:#FFFFFF"/>
							<stop  offset="0.15" style="stop-color:#F8F8F8"/>
							<stop  offset="0.4646" style="stop-color:#EFEFEF"/>
							<stop  offset="1" style="stop-color:#EDEDED"/>
						</linearGradient>
						<polygon style="opacity:0.7;fill:url(#SVGID_00000162325185625600467930000001634550299956072622_);" points="750,52.159 
							656.633,0.088 750,0.088 						"/>
					</g>
					<path style="fill:none;stroke:#CCCCCC;stroke-miterlimit:10;" d="M750,104.229L657.124,0.088l-79.278,52.07L472.044,75.06
						L354.592,17.787l-83.825,70.386l-44.155-21.074l-99.349,55.194L46.981,61.191L0,53.05L73.084,0.088l153.528,67.011
						 M46.981,61.191L73.084,0.088l54.179,122.204 M212.539,0.088l14.073,67.011l48.863-67.011l-4.708,88.085 M356.755,0.088
						l136.941,23.492L472.044,75.06L356.755,0.088l-2.163,17.699L275.475,0.088 M577.845,52.159l-84.15-28.578L657.124,0.088
						L750,52.159"/>
				</g>
			</g>
			<g>
				<g>
					<polyline style="fill:none;stroke:#999999;stroke-width:0.5;stroke-miterlimit:10;" points="797.716,370.228 696.33,389.421 
						588.652,530.4 495.046,399.635 398.199,440.362 342.408,531.938 228.538,389.494 140.877,424.904 64.586,390.135 
						-26.868,428.24 					"/>
					<polyline style="fill:none;stroke:#999999;stroke-width:0.5;stroke-miterlimit:10;" points="140.877,424.904 28.707,513.165 
						64.586,390.135 					"/>
					<polyline style="fill:none;stroke:#999999;stroke-width:0.5;stroke-miterlimit:10;" points="228.538,389.494 149.551,532.047 
						140.877,424.904 					"/>
					<polyline style="fill:none;stroke:#999999;stroke-width:0.5;stroke-miterlimit:10;" points="398.199,440.362 438.509,526.76 
						495.046,399.635 					"/>
					
						<line style="fill:none;stroke:#999999;stroke-width:0.5;stroke-miterlimit:10;" x1="696.33" y1="389.421" x2="784.738" y2="462.04"/>
				</g>
				<g>
					<polyline style="fill:#E5E5E5;" points="0,499.912 0,395.771 92.876,499.912 172.155,447.841 277.956,424.94 395.408,482.213 
						479.233,411.827 523.388,432.901 622.737,377.707 703.019,438.809 750,446.95 750,499.912 					"/>
					<g>
						
							<linearGradient id="SVGID_00000012461337728303738810000009377860841487843999_" gradientUnits="userSpaceOnUse" x1="270.767" y1="1211.4603" x2="355.032" y2="1211.4603" gradientTransform="matrix(-1 0 0 1 750 -755.5911)">
							<stop  offset="0" style="stop-color:#FFFFFF"/>
							<stop  offset="0.15" style="stop-color:#F8F8F8"/>
							<stop  offset="0.4646" style="stop-color:#EFEFEF"/>
							<stop  offset="1" style="stop-color:#EDEDED"/>
						</linearGradient>
						<polygon style="opacity:0.7;fill:url(#SVGID_00000012461337728303738810000009377860841487843999_);" points="
							479.233,411.827 474.126,499.912 394.968,481.982 						"/>
						
							<linearGradient id="SVGID_00000015357083433381883620000018095250489824776857_" gradientUnits="userSpaceOnUse" x1="72.9965" y1="1221.7383" x2="226.7985" y2="1221.7383" gradientTransform="matrix(-1 0 0 1 750 -755.5911)">
							<stop  offset="0" style="stop-color:#FFFFFF"/>
							<stop  offset="0.15" style="stop-color:#F8F8F8"/>
							<stop  offset="0.4646" style="stop-color:#EFEFEF"/>
							<stop  offset="1" style="stop-color:#EDEDED"/>
						</linearGradient>
						<polyline style="opacity:0.7;fill:url(#SVGID_00000015357083433381883620000018095250489824776857_);" points="
							677.003,499.912 523.201,432.383 537.461,499.912 						"/>
						
							<linearGradient id="SVGID_00000147204461586115119170000015721871333520092289_" gradientUnits="userSpaceOnUse" x1="0" y1="1225.1096" x2="72.9965" y2="1225.1096" gradientTransform="matrix(-1 0 0 1 750 -755.5911)">
							<stop  offset="0" style="stop-color:#FFFFFF"/>
							<stop  offset="0.15" style="stop-color:#F8F8F8"/>
							<stop  offset="0.4646" style="stop-color:#EFEFEF"/>
							<stop  offset="1" style="stop-color:#EDEDED"/>
						</linearGradient>
						<polygon style="opacity:0.7;fill:url(#SVGID_00000147204461586115119170000015721871333520092289_);" points="750,446.765 
							703.348,439.037 677.003,500 						"/>
						
							<linearGradient id="SVGID_00000071561474249348528510000002893996084618304665_" gradientUnits="userSpaceOnUse" x1="479.515" y1="1208.1387" x2="391.2905" y2="1265.4524" gradientTransform="matrix(-1 0 0 1 750 -755.5911)">
							<stop  offset="0" style="stop-color:#FFFFFF"/>
							<stop  offset="0.15" style="stop-color:#F8F8F8"/>
							<stop  offset="0.4646" style="stop-color:#EFEFEF"/>
							<stop  offset="1" style="stop-color:#EDEDED"/>
						</linearGradient>
						<polygon style="opacity:0.7;fill:url(#SVGID_00000071561474249348528510000002893996084618304665_);" points="277.956,424.94 
							256.556,476.149 393.653,499.912 						"/>
						
							<linearGradient id="SVGID_00000175324050859839365390000009377789614483967153_" gradientUnits="userSpaceOnUse" x1="493.4441" y1="1229.4674" x2="656.6334" y2="1229.4674" gradientTransform="matrix(-1 0 0 1 750 -755.5911)">
							<stop  offset="0" style="stop-color:#FFFFFF"/>
							<stop  offset="0.15" style="stop-color:#F8F8F8"/>
							<stop  offset="0.4646" style="stop-color:#EFEFEF"/>
							<stop  offset="1" style="stop-color:#EDEDED"/>
						</linearGradient>
						<polygon style="opacity:0.7;fill:url(#SVGID_00000175324050859839365390000009377789614483967153_);" points="
							172.155,447.841 256.556,476.149 93.367,499.912 						"/>
						
							<linearGradient id="SVGID_00000116225045405831598620000015068333621990568349_" gradientUnits="userSpaceOnUse" x1="677.5125" y1="1263.9117" x2="792.8427" y2="1209.1095" gradientTransform="matrix(-1 0 0 1 750 -755.5911)">
							<stop  offset="0" style="stop-color:#FFFFFF"/>
							<stop  offset="0.15" style="stop-color:#F8F8F8"/>
							<stop  offset="0.4646" style="stop-color:#EFEFEF"/>
							<stop  offset="1" style="stop-color:#EDEDED"/>
						</linearGradient>
						<polygon style="opacity:0.7;fill:url(#SVGID_00000116225045405831598620000015068333621990568349_);" points="0,447.841 
							93.367,499.912 0,499.912 						"/>
					</g>
					<path style="fill:none;stroke:#CCCCCC;stroke-miterlimit:10;" d="M0,395.771l92.876,104.141l79.278-52.07l105.802-22.901
						l117.452,57.273l83.825-70.386l44.155,21.074l99.349-55.194l80.282,61.102L750,446.95l-73.084,52.961l-153.528-67.011
						 M703.019,438.809l-26.102,61.102l-54.179-122.204 M537.461,499.912l-14.073-67.011l-48.863,67.011l4.708-88.085
						 M393.245,499.912l-136.941-23.492l21.652-51.479L393.245,499.912l2.163-17.699l79.117,17.699 M172.155,447.841l84.149,28.578
						L92.876,499.912L0,447.841"/>
				</g>
			</g>
		</g>
		<g style="clip-path:url(#SVGID_00000168802827837587368450000009178014228270819730_);">
			<path style="fill:#FFFFFF;" d="M130.164,400.941c0,3.197-2.591,5.788-5.788,5.788c-3.196,0-5.788-2.591-5.788-5.788
				c0-3.196,2.591-5.788,5.788-5.788C127.572,395.153,130.164,397.745,130.164,400.941z"/>
			
				<ellipse transform="matrix(0.2036 -0.979 0.979 0.2036 -83.3072 172.4754)" style="fill:#FFFFFF;" cx="64.366" cy="137.446" rx="7.92" ry="7.92"/>
			<path style="fill:#FFFFFF;" d="M648.015,141.406c0,2.187-1.773,3.96-3.96,3.96c-2.187,0-3.96-1.773-3.96-3.96
				s1.773-3.96,3.96-3.96C646.242,137.446,648.015,139.219,648.015,141.406z"/>
			
				<ellipse transform="matrix(0.2307 -0.973 0.973 0.2307 268.025 901.4394)" style="fill:#FFFFFF;" cx="704.065" cy="281.226" rx="9.139" ry="9.139"/>
			<path style="fill:#FFFFFF;" d="M573.079,378.704c0,2.355-1.909,4.265-4.265,4.265c-2.355,0-4.265-1.909-4.265-4.265
				c0-2.355,1.909-4.265,4.265-4.265C571.169,374.439,573.079,376.349,573.079,378.704z"/>
			<path style="fill:#FFFFFF;" d="M311.385,99.281c0,1.178-0.955,2.132-2.132,2.132c-1.178,0-2.132-0.955-2.132-2.132
				c0-1.178,0.955-2.132,2.132-2.132C310.43,97.148,311.385,98.103,311.385,99.281z"/>
			<circle style="fill:#FFFFFF;" cx="66.498" cy="368.651" r="10.052"/>
			<path style="fill:#FFFFFF;" d="M636.629,62.349c0,3.874-3.141,7.015-7.015,7.015c-3.875,0-7.015-3.141-7.015-7.015
				s3.141-7.015,7.015-7.015C633.488,55.334,636.629,58.475,636.629,62.349z"/>
		</g>
	</g>
</g>
</svg>
