<?xml version="1.0" encoding="utf-8"?>
<!-- Generator: Adobe Illustrator 28.2.0, SVG Export Plug-In . SVG Version: 6.00 Build 0)  -->
<svg version="1.1" id="Layer_1" xmlns="http://www.w3.org/2000/svg" xmlns:xlink="http://www.w3.org/1999/xlink" x="0px" y="0px"
	 viewBox="0 0 612 792" style="enable-background:new 0 0 612 792;" xml:space="preserve">
<style type="text/css">
	.st0{fill:#003E60;}
	.st1{opacity:0.5;}
	.st2{fill:none;stroke:#FFFFFF;stroke-width:1.2544;stroke-miterlimit:10;}
	.st3{fill:none;stroke:#FFFFFF;stroke-width:1.2544;stroke-miterlimit:10;stroke-dasharray:5.0657,5.0657;}
	.st4{fill:none;stroke:#FFFFFF;stroke-width:1.2544;stroke-miterlimit:10;stroke-dasharray:4.9673,4.9673;}
	.st5{fill:none;stroke:#FFFFFF;stroke-width:1.2544;stroke-miterlimit:10;stroke-dasharray:4.9757,4.9757;}
	.st6{fill:none;stroke:#FFFFFF;stroke-width:1.2544;stroke-miterlimit:10;stroke-dasharray:4.9622,4.9622;}
	.st7{fill:#CDB52F;}
	.st8{fill:#FFF8A1;}
	.st9{font-family:'Futura-Medium';}
	.st10{font-size:8.0587px;}
	.st11{fill:#FFFFFF;}
	.st12{fill:#F7941D;}
	.st13{fill-rule:evenodd;clip-rule:evenodd;fill:#383285;}
	.st14{fill-rule:evenodd;clip-rule:evenodd;fill:#7590C9;}
	.st15{fill-rule:evenodd;clip-rule:evenodd;fill:#EC008C;}
	.st16{fill-rule:evenodd;clip-rule:evenodd;fill:#003E60;}
	.st17{fill:#8DC63F;}
	.st18{fill:#00AEEF;}
	.st19{fill-rule:evenodd;clip-rule:evenodd;fill:#F7941D;}
	.st20{fill-rule:evenodd;clip-rule:evenodd;fill:#00AEEF;}
</style>
<g>
	<polygon class="st0" points="478.02,555.87 306.08,611.07 134.44,555.87 134.44,125.53 478.02,125.53 	"/>
	<g class="st1">
		<g>
			<polyline class="st2" points="465.47,542.52 465.47,545.03 463.08,545.79 			"/>
			<polyline class="st3" points="458.26,547.33 306.08,596.02 151.79,546.97 			"/>
			<polyline class="st2" points="149.38,546.2 146.99,545.44 146.99,542.93 			"/>
			<line class="st4" x1="146.99" y1="537.97" x2="146.99" y2="143.06"/>
			<polyline class="st2" points="146.99,140.58 146.99,138.07 149.5,138.07 			"/>
			<line class="st5" x1="154.47" y1="138.07" x2="460.48" y2="138.07"/>
			<polyline class="st2" points="462.97,138.07 465.47,138.07 465.47,140.58 			"/>
			<line class="st6" x1="465.47" y1="145.54" x2="465.47" y2="540.04"/>
		</g>
	</g>
</g>
<g>
	<g>
		<path class="st7" d="M200.03,426.77h14.96c7.1,0,10.94,3.55,10.94,10.13c0,3.9-1.22,6.23-4.25,8.03c5.47,1.05,7.91,4.02,7.91,9.49
			c0,6.98-5.01,11.17-13.39,11.17h-16.18V426.77z M211.96,442.08c3.08,0,4.71-1.34,4.71-3.84c0-2.44-1.63-3.78-4.71-3.78h-1.86v7.62
			H211.96z M212.31,457.73c4.95,0,7.1-1.22,7.1-4.02c0-1.51-0.7-2.79-1.92-3.43c-1.16-0.58-2.04-0.7-5.35-0.7h-2.04v8.15H212.31z"/>
		<path class="st7" d="M265.33,465.59h-12.57l-9.6-14.9v14.9h-10.07v-38.82h15.66c4.42,0,7.27,1.05,9.54,3.43
			c2.1,2.21,3.32,5.35,3.32,8.56c0,5.82-2.97,9.66-8.5,10.94L265.33,465.59z M245.02,444.17c3.96,0,6.23-1.8,6.23-4.83
			s-2.33-4.83-6.23-4.83h-1.86v9.66H245.02z"/>
		<path class="st7" d="M307.17,446.27c0,11.81-9.2,20.72-21.48,20.72c-12.28,0-21.48-8.9-21.48-20.72c0-11.76,9.2-20.66,21.48-20.66
			C297.98,425.61,307.17,434.45,307.17,446.27z M274.76,446.27c0,6.05,4.89,10.94,10.94,10.94c6.05,0,10.94-4.89,10.94-10.94
			c0-5.99-4.89-10.88-10.94-10.88C279.65,435.39,274.76,440.27,274.76,446.27z"/>
		<path class="st7" d="M333.01,426.77h12.45l-15.36,18.39l16.82,20.43h-13.1l-13.09-16.82v16.82h-10.07v-38.82h10.07v16.01
			L333.01,426.77z"/>
		<path class="st7" d="M358.56,435.33v6.46h11.35v8.55h-11.35v6.69h11.99v8.56H348.5v-38.82h22.06v8.56H358.56z"/>
		<path class="st7" d="M374.04,426.77h10.07l18.57,23.75v-23.75h10.07v38.82h-10.07l-18.57-23.74v23.74h-10.07V426.77z"/>
		<path class="st7" d="M256.77,486.28c-2.39-2.85-5.24-4.25-8.73-4.25c-6.05,0-10.42,4.48-10.42,10.71
			c0,5.99,4.42,10.42,10.42,10.42c3.32,0,6.11-1.28,8.73-4.07v11.93c-4.71,1.57-6.29,1.92-8.9,1.92c-11.7,0-20.78-8.85-20.78-20.25
			c0-11.35,9.14-20.43,20.54-20.43c3.03,0,5.47,0.52,9.14,1.98V486.28z"/>
		<path class="st7" d="M286.57,488.08v-15.02h10.07v38.82h-10.07v-15.95h-14.61v15.95H261.9v-38.82h10.07v15.02H286.57z"/>
		<path class="st7" d="M311.54,505.13l-2.68,6.75h-10.65l14.9-38.82h11l14.61,38.82h-10.77l-2.5-6.75H311.54z M318.58,485.05
			l-4.25,12.4h8.38L318.58,485.05z"/>
		<path class="st7" d="M350.36,511.88h-10.07v-38.82h10.07V511.88z"/>
		<path class="st7" d="M387.84,511.88h-12.57l-9.6-14.9v14.9H355.6v-38.82h15.66c4.42,0,7.27,1.05,9.54,3.43
			c2.1,2.21,3.32,5.35,3.32,8.55c0,5.82-2.97,9.66-8.5,10.94L387.84,511.88z M367.53,490.47c3.96,0,6.23-1.8,6.23-4.83
			c0-3.03-2.33-4.83-6.23-4.83h-1.86v9.66H367.53z"/>
	</g>
	<g>
		<path class="st8" d="M229.69,520.15h1.59c1.27,0,1.99,0.16,2.55,0.54c0.73,0.51,1.21,1.48,1.21,2.47c0,0.75-0.27,1.37-0.86,1.89
			c1.11,0.4,1.82,1.42,1.82,2.66c0,0.91-0.38,1.72-1.07,2.29c-0.7,0.57-1.37,0.76-2.8,0.76h-2.44V520.15z M231.79,524.72
			c1.15,0,1.74-0.54,1.74-1.56c0-0.99-0.59-1.53-1.67-1.53h-0.56v3.09H231.79z M232.28,529.26c1.37,0,2.13-0.57,2.13-1.56
			c0-1.1-0.76-1.64-2.31-1.64h-0.81v3.2H232.28z"/>
		<path class="st8" d="M260.81,530.78h-1.96l-3.03-4.35h-0.29v4.35h-1.61v-10.62h1.88c1.37,0,2.13,0.18,2.8,0.62
			c0.78,0.51,1.27,1.48,1.27,2.48c0,1.5-0.94,2.69-2.36,2.99L260.81,530.78z M256.05,525.03c1.48,0,2.28-0.6,2.28-1.74
			c0-1.07-0.76-1.62-2.21-1.62h-0.57v3.36H256.05z"/>
		<path class="st8" d="M279.93,521.67v2.55h4.12v1.51h-4.12v3.53h4.25v1.51h-5.86v-10.62h5.86v1.51H279.93z"/>
		<path class="st8" d="M305.48,527.26l2.88-7.61l2.77,7.61l2.93-7.1h1.74l-4.75,11.31l-2.72-7.53l-2.85,7.53l-4.51-11.31h1.74
			L305.48,527.26z"/>
		<path class="st8" d="M334.65,521.67v2.55h4.12v1.51h-4.12v3.53h4.25v1.51h-5.86v-10.62h5.86v1.51H334.65z"/>
		<path class="st8" d="M363.8,530.78h-1.96l-3.03-4.35h-0.29v4.35h-1.61v-10.62h1.88c1.37,0,2.13,0.18,2.8,0.62
			c0.78,0.51,1.27,1.48,1.27,2.48c0,1.5-0.94,2.69-2.36,2.99L363.8,530.78z M359.04,525.03c1.48,0,2.28-0.6,2.28-1.74
			c0-1.07-0.76-1.62-2.21-1.62h-0.57v3.36H359.04z"/>
		<path class="st8" d="M379.52,520.15h1.85l2.42,4.25l2.45-4.25h1.83l-3.47,6.04v4.59H383v-4.59L379.52,520.15z"/>
	</g>
</g>
<text transform="matrix(1 0 0 1 249.6587 416.5119)" class="st8 st9 st10">WEST READING, PENNA.</text>
<path class="st11" d="M402.79,310.4H353.3l3.64-8.5h45.84c4.35,0,7.9-3.54,7.9-7.9v-57.27c0-4.35-3.54-7.9-7.9-7.9h-45.84l-3.64-8.5
	h49.49c9.04,0,16.4,7.36,16.4,16.4V294C419.19,303.04,411.84,310.4,402.79,310.4z"/>
<g>
	<path class="st11" d="M310.49,368.94c-1,0-1.81-0.81-1.81-1.81v-9.92l-1.17,0.01c-0.19,0-0.37,0.01-0.56,0.02
		c-0.2,0.01-0.41,0.01-0.61,0.01s-0.41-0.01-0.61-0.01c-0.19-0.01-0.37-0.01-0.56-0.02l-1.17-0.01v9.92c0,1-0.81,1.81-1.82,1.81
		H291.2c-1,0-1.81-0.81-1.81-1.81v-11.48l-0.92-0.19c-0.56-0.11-1.11-0.25-1.67-0.38l-2.08-0.49v7.92c0,1-0.81,1.82-1.81,1.82H271.9
		c-1,0-1.82-0.81-1.82-1.82v-9.53h-16.27c-5.71,0-10.36-4.65-10.36-10.36v-1.87l-1.05-0.09c-9.33-0.79-16.64-8.74-16.64-18.1
		c0-3.43,0.98-6.79,2.83-9.71l0.37-0.58l-0.34-0.6c-7.36-13.14-11.24-28.06-11.24-43.15c0-20.79,7.36-40.97,20.73-56.91h136.46
		c13.37,15.93,20.73,36.12,20.73,56.91c0,15.09-3.89,30.01-11.24,43.15l-0.34,0.6l0.37,0.58c1.85,2.92,2.83,6.28,2.83,9.71
		c0,9.37-7.31,17.32-16.64,18.1l-1.05,0.09v1.87c0,5.71-4.65,10.36-10.36,10.36h-16.27v9.53c0,1-0.81,1.82-1.81,1.82h-10.99
		c-1,0-1.82-0.81-1.82-1.82v-7.92l-2.08,0.49c-0.55,0.13-1.11,0.26-1.67,0.38l-0.92,0.19v11.48c0,1-0.81,1.81-1.81,1.81H310.49z"/>
	<path class="st0" d="M374.03,212.77c12.98,15.66,20.12,35.42,20.12,55.76c0,14.89-3.84,29.62-11.1,42.59l-0.67,1.2l0.73,1.16
		c1.73,2.74,2.65,5.88,2.65,9.09c0,8.77-6.85,16.22-15.58,16.96l-2.11,0.18v2.12v0.81c0,5.08-4.13,9.21-9.21,9.21h-15.12h-2.3v2.3
		v8.38c0,0.36-0.3,0.66-0.66,0.66h-10.99c-0.36,0-0.66-0.3-0.66-0.66v-6.47v-2.9l-2.82,0.65l-0.7,0.17
		c-0.53,0.13-1.07,0.25-1.61,0.36l-1.84,0.38v1.88v10.54c0,0.36-0.3,0.66-0.66,0.66h-10.99c-0.36,0-0.66-0.3-0.66-0.66v-8.75v-2.33
		l-2.33,0.03c-0.19,0-0.38,0.01-0.57,0.02c-0.19,0.01-0.39,0.01-0.58,0.01c-0.19,0-0.39-0.01-0.58-0.01
		c-0.19-0.01-0.38-0.01-0.57-0.02l-2.33-0.03v2.33v8.75c0,0.36-0.3,0.66-0.66,0.66H291.2c-0.36,0-0.66-0.3-0.66-0.66v-10.54v-1.88
		l-1.84-0.38c-0.54-0.11-1.07-0.24-1.61-0.36l-0.7-0.17l-2.82-0.65v2.9v6.47c0,0.36-0.3,0.66-0.66,0.66H271.9
		c-0.36,0-0.66-0.3-0.66-0.66v-8.38v-2.3h-2.3h-15.12c-5.08,0-9.21-4.13-9.21-9.21v-0.81v-2.12l-2.11-0.18
		c-8.74-0.74-15.58-8.19-15.58-16.96c0-3.21,0.92-6.36,2.65-9.09l0.73-1.16l-0.67-1.2c-7.26-12.97-11.1-27.7-11.1-42.59
		c0-20.34,7.14-40.09,20.12-55.76H374.03 M375.11,210.47H237.58c-13.31,15.66-21.35,35.92-21.35,58.06
		c0,15.87,4.15,30.77,11.39,43.71c-1.89,2.99-3.01,6.52-3.01,10.32c0,10.12,7.78,18.42,17.69,19.25v0.81
		c0,6.33,5.18,11.51,11.51,11.51h15.12v8.38c0,1.63,1.33,2.97,2.97,2.97h10.99c1.63,0,2.97-1.33,2.97-2.97v-6.47
		c0.79,0.18,1.57,0.38,2.37,0.54v10.54c0,1.63,1.33,2.97,2.97,2.97h10.99c1.63,0,2.97-1.33,2.97-2.97v-8.75
		c0.4,0.01,0.79,0.03,1.18,0.03c0.4,0,0.79-0.02,1.18-0.03v8.75c0,1.63,1.33,2.97,2.97,2.97h10.99c1.63,0,2.97-1.33,2.97-2.97
		v-10.54c0.8-0.16,1.58-0.36,2.37-0.54v6.47c0,1.63,1.33,2.97,2.97,2.97h10.99c1.63,0,2.97-1.33,2.97-2.97v-8.38h15.12
		c6.33,0,11.51-5.18,11.51-11.51v-0.81c9.91-0.84,17.69-9.13,17.69-19.25c0-3.8-1.11-7.33-3.01-10.32
		c7.24-12.94,11.39-27.84,11.39-43.71C396.46,246.39,388.42,226.13,375.11,210.47L375.11,210.47z"/>
</g>
<g>
	<path class="st12" d="M288.61,221.81c-1.95,1.95-1.95,5.13,0,7.09s5.13,1.95,7.09,0s5.51-8.68,3.54-10.64
		C297.29,216.3,290.58,219.84,288.61,221.81z"/>
	<path class="st12" d="M306.34,221.2c-2.77,0-5.01,7.26-5.01,10.03s2.25,5.01,5.01,5.01s5.01-2.25,5.01-5.01
		S309.11,221.2,306.34,221.2z"/>
	<path class="st12" d="M313.43,218.25c-1.95,1.95,1.59,8.68,3.54,10.64c1.95,1.95,5.13,1.95,7.09,0s1.95-5.13,0-7.09
		C322.11,219.84,315.39,216.3,313.43,218.25z"/>
	<path class="st12" d="M316.54,210.47c-0.1,0.23-0.17,0.46-0.17,0.69c0,2.77,7.26,5.01,10.03,5.01c2.77,0,5.01-2.25,5.01-5.01
		c0-0.24-0.04-0.47-0.07-0.69H316.54z"/>
	<path class="st12" d="M281.34,210.47c-0.03,0.23-0.07,0.46-0.07,0.69c0,2.77,2.25,5.01,5.01,5.01c2.77,0,10.03-2.25,10.03-5.01
		c0-0.24-0.07-0.47-0.17-0.69H281.34z"/>
	<path class="st12" d="M301.4,210.47c-0.03,0.23-0.07,0.46-0.07,0.69c0,2.77,2.24,5.01,5.01,5.01s5.01-2.24,5.01-5.01
		c0-0.24-0.04-0.47-0.07-0.69H301.4z"/>
</g>
<g>
	<path class="st13" d="M378.85,240.09c0.96-1.39,2.12-2.19,3.55-2.41c1.44-0.1,2.75,0.42,4,1.55c6.02,5.69,2.02,26.75-2.66,32.34
		c0.56-6.06-1.6-14.89-3.85-20.66C378.43,247.15,376.05,244.29,378.85,240.09L378.85,240.09z"/>
	<path class="st13" d="M233.83,240.09c-0.96-1.39-2.12-2.19-3.55-2.41c-1.44-0.1-2.75,0.42-4,1.55c-6.02,5.69-2.02,26.75,2.66,32.34
		c-0.56-6.06,1.6-14.89,3.85-20.66C234.26,247.15,236.63,244.29,233.83,240.09L233.83,240.09z"/>
</g>
<g>
	<g>
		<path class="st14" d="M231.88,233.77c-0.28-0.84-0.18-1.67,0.09-2.6c0.09-0.46,0.28-0.93,0.56-1.39c1.21-2.69,2.14-6.32,2.7-10.87
			c3.81,6.23,5.02,10.69,3.72,13.38c-0.28,0.47-0.46,0.93-0.74,1.39c-0.46,0.84-1.02,1.4-1.86,1.86c-1.02,0.46-1.95,0.56-2.79,0.18
			C232.72,235.44,232.16,234.79,231.88,233.77L231.88,233.77L231.88,233.77z"/>
		<path class="st14" d="M246.84,231.91c-0.93-0.09-1.76-0.46-2.51-1.11c-0.46-0.37-0.84-0.74-1.21-1.12
			c-2.32-2.32-4.65-6.32-6.78-11.99c5.39,2.41,9.29,4.74,11.62,7.06c0.37,0.47,0.74,0.84,1.11,1.21c0.65,0.84,1.12,1.67,1.21,2.6
			c0.09,1.11-0.19,1.95-0.84,2.6C248.79,231.81,247.86,232.09,246.84,231.91L246.84,231.91L246.84,231.91z"/>
		<path class="st14" d="M252.6,213.42c1.02,0.28,1.67,0.84,2.04,1.67c0.28,0.84,0.19,1.76-0.28,2.79c-0.47,0.84-1.02,1.39-1.77,1.86
			c-0.47,0.28-0.93,0.46-1.39,0.74c-2.79,1.3-7.25,0-13.38-3.81c4.46-0.46,8.08-1.3,10.87-2.6c0.46-0.28,0.93-0.47,1.39-0.65
			C250.93,213.14,251.76,213.14,252.6,213.42L252.6,213.42L252.6,213.42z"/>
	</g>
	<g>
		<path class="st14" d="M380.8,233.77c0.28-0.84,0.18-1.67-0.09-2.6c-0.09-0.46-0.28-0.93-0.56-1.39c-1.21-2.69-2.14-6.32-2.7-10.87
			c-3.81,6.23-5.02,10.69-3.72,13.38c0.28,0.47,0.46,0.93,0.74,1.39c0.46,0.84,1.02,1.4,1.86,1.86c1.02,0.46,1.95,0.56,2.79,0.18
			C379.97,235.44,380.52,234.79,380.8,233.77L380.8,233.77L380.8,233.77z"/>
		<path class="st14" d="M365.84,231.91c0.93-0.09,1.76-0.46,2.51-1.11c0.46-0.37,0.84-0.74,1.21-1.12
			c2.32-2.32,4.65-6.32,6.78-11.99c-5.39,2.41-9.29,4.74-11.62,7.06c-0.37,0.47-0.74,0.84-1.11,1.21c-0.65,0.84-1.12,1.67-1.21,2.6
			c-0.09,1.11,0.19,1.95,0.84,2.6C363.89,231.81,364.82,232.09,365.84,231.91L365.84,231.91L365.84,231.91z"/>
		<path class="st14" d="M360.08,213.42c-1.02,0.28-1.67,0.84-2.04,1.67c-0.28,0.84-0.19,1.76,0.28,2.79
			c0.47,0.84,1.02,1.39,1.77,1.86c0.47,0.28,0.93,0.46,1.39,0.74c2.79,1.3,7.25,0,13.38-3.81c-4.46-0.46-8.08-1.3-10.87-2.6
			c-0.46-0.28-0.93-0.47-1.39-0.65C361.76,213.14,360.92,213.14,360.08,213.42L360.08,213.42L360.08,213.42z"/>
	</g>
</g>
<g>
	<path class="st8" d="M218.96,311.78c-4.46,0-8.09-3.63-8.09-8.09c0-3.08,1.76-5.84,4.47-7.2c-2.87-8.97-4.33-18.26-4.33-27.64
		c0-19.42,6.07-37.96,17.56-53.64c0.02-13.21,10.78-23.96,24-23.96c0.06,0,0.13,0,0.19,0c3.57-16.3,18.07-28.03,34.87-28.03
		c13.16,0,25.01,7.05,31.29,18.52c3.99-3.71,9.27-5.81,14.73-5.81c8.14,0,15.59,4.61,19.27,11.83c1.83-0.58,3.72-0.88,5.62-0.88
		c10.28,0,18.64,8.36,18.64,18.64c0,1.83-0.27,3.65-0.8,5.41c-0.15,0.49-0.59,0.82-1.1,0.82c-0.08,0-0.16-0.01-0.24-0.03h-9.17
		c0.28,1.02,0.42,2.08,0.42,3.15c0,6.58-5.35,11.93-11.93,11.93s-11.93-5.35-11.93-11.93c0-1.07,0.14-2.13,0.43-3.15H238.25
		c-13.37,15.93-20.73,36.12-20.73,56.91c0,13.25,2.87,26.01,8.52,37.92c0.16,0.34,0.15,0.73-0.03,1.05
		C224.57,310.18,221.87,311.78,218.96,311.78z"/>
	<path class="st7" d="M287.62,164.38c13.6,0,25.36,7.86,31,19.29c3.74-4.04,9.08-6.59,15.02-6.59c8.32,0,15.47,4.97,18.68,12.1
		c1.93-0.73,4.02-1.15,6.21-1.15c9.66,0,17.49,7.83,17.49,17.49c0,1.77-0.27,3.47-0.75,5.08h0c-0.01-0.01-0.01-0.02-0.02-0.03
		h-11.02c0.58,1.32,0.9,2.77,0.9,4.31c0,5.95-4.83,10.78-10.78,10.78c-5.95,0-10.78-4.83-10.78-10.78c0-1.53,0.32-2.99,0.9-4.31
		H237.71c-13.31,15.66-21.35,35.92-21.35,58.06c0,13.75,3.11,26.76,8.64,38.41c-1.18,2.13-3.43,3.59-6.04,3.59
		c-3.83,0-6.94-3.11-6.94-6.94c0-3.06,1.99-5.63,4.74-6.55c-2.96-8.9-4.6-18.4-4.6-28.29c0-19.95,6.54-38.36,17.57-53.28
		c0-0.11-0.01-0.21-0.01-0.32c0-12.62,10.23-22.85,22.85-22.85c0.38,0,0.74,0.04,1.12,0.06
		C256.71,176.47,270.75,164.38,287.62,164.38 M287.62,162.07c-17.03,0-31.77,11.68-35.78,28.04c-13.39,0.38-24.2,11.29-24.42,24.72
		c-11.49,15.81-17.56,34.48-17.56,54.02c0,9.19,1.38,18.3,4.1,27.1c-2.6,1.67-4.24,4.56-4.24,7.74c0,5.1,4.15,9.24,9.24,9.24
		c3.33,0,6.41-1.83,8.05-4.77c0.36-0.65,0.39-1.43,0.07-2.11c-5.58-11.76-8.41-24.35-8.41-37.43c0-20.34,7.14-40.09,20.12-55.76
		h102.63c-0.1,0.66-0.15,1.33-0.15,2c0,7.21,5.87,13.08,13.08,13.08c7.21,0,13.08-5.87,13.08-13.08c0-0.68-0.05-1.34-0.15-2h7.64
		c0.11,0.02,0.23,0.03,0.34,0.03c1.01,0,1.91-0.66,2.21-1.63c0.57-1.87,0.85-3.8,0.85-5.74c0-10.92-8.88-19.8-19.8-19.8
		c-1.7,0-3.39,0.22-5.04,0.66c-4.01-7.11-11.59-11.61-19.85-11.61c-5.26,0-10.37,1.86-14.42,5.17
		C312.57,168.85,300.72,162.07,287.62,162.07L287.62,162.07z"/>
</g>
<g>
	<g>
		<path class="st15" d="M251.01,258.46c0.81,1.01,1.24,2.25,1.24,3.58c0,1.54-0.58,2.96-1.66,4.04c-0.1,0.1-0.21,0.2-0.31,0.29
			c0.07,0.02,0.13,0.05,0.2,0.07c1.44,0.54,2.55,1.6,3.18,3c0.53,1.17,0.66,2.44,0.36,3.67c1.29,0.12,2.46,0.66,3.43,1.55l0.09,0.09
			l0.09,0.09c1.02,1.11,1.58,2.49,1.58,3.99c0,0.07,0,0.14,0,0.21c0.03-0.01,0.06-0.03,0.09-0.04c1.37-0.62,2.87-0.68,4.29-0.2
			l0.12,0.04l0.11,0.05c1.2,0.51,2.17,1.34,2.81,2.45c1.02-0.84,2.28-1.29,3.63-1.29c1.51,0,2.89,0.56,3.99,1.58l0.09,0.08
			l0.05,0.06c0.02-0.05,0.04-0.11,0.06-0.16c0.54-1.44,1.6-2.55,3-3.18c1.25-0.56,2.6-0.67,3.91-0.32c0.15-1.22,0.68-2.34,1.54-3.26
			l0.08-0.09l0.09-0.08c1.11-1.02,2.49-1.58,3.99-1.58c0.03,0,0.06,0,0.1,0c-0.05-0.1-0.1-0.2-0.15-0.3
			c-0.62-1.37-0.68-2.87-0.21-4.29l0.04-0.12l0.05-0.12c0.51-1.22,1.37-2.19,2.5-2.83c-0.74-0.97-1.12-2.14-1.12-3.39
			c0-1.55,0.59-2.97,1.71-4.05c0.07-0.07,0.13-0.13,0.2-0.2c-0.18-0.05-0.35-0.11-0.52-0.18c-1.46-0.52-2.58-1.57-3.22-2.98
			c-0.54-1.19-0.65-2.48-0.33-3.72c-1.13-0.19-2.17-0.7-3.03-1.5l-0.09-0.08l-0.08-0.09c-1.03-1.11-1.58-2.49-1.58-4
			c0-0.15,0.01-0.29,0.02-0.44c-0.17,0.1-0.35,0.19-0.53,0.27c-1.37,0.62-2.86,0.68-4.29,0.21l-0.12-0.04l-0.12-0.05
			c-1.11-0.47-2.02-1.23-2.66-2.21c-0.98,0.69-2.12,1.06-3.35,1.06c-1.54,0-2.96-0.58-4.05-1.67c-0.14-0.14-0.26-0.28-0.38-0.42
			c-0.03,0.13-0.07,0.26-0.11,0.38l-0.04,0.12l-0.05,0.12c-0.59,1.38-1.61,2.46-2.99,3.08c-1.11,0.5-2.32,0.64-3.49,0.41
			c-0.17,1.19-0.69,2.27-1.52,3.17l-0.09,0.09l-0.09,0.09c-1.11,1.02-2.49,1.58-3.99,1.58c-0.18,0-0.36-0.01-0.54-0.02
			c0.06,0.11,0.11,0.22,0.16,0.33c0.62,1.37,0.68,2.87,0.21,4.29l-0.04,0.12l-0.05,0.12C252.73,256.92,251.99,257.82,251.01,258.46
			L251.01,258.46z M243.34,257.23c-0.29-0.36-0.53-0.77-0.73-1.21c-0.64-1.42-0.68-2.96-0.13-4.42c0.54-1.44,1.6-2.55,3-3.18
			c0.93-0.42,1.91-0.58,2.89-0.5c-0.43-0.81-0.66-1.72-0.66-2.69c0-1.57,0.6-2.98,1.71-4.09c1.09-1.09,2.51-1.67,4.05-1.67
			c0.38,0,0.76,0.04,1.13,0.11c0.06-0.41,0.17-0.83,0.32-1.23c0.54-1.44,1.6-2.55,2.99-3.18c1.37-0.62,2.86-0.68,4.29-0.21
			l0.12,0.04l0.12,0.05c0.91,0.38,1.68,0.96,2.28,1.69c0.26-0.96,0.77-1.82,1.5-2.56c1.09-1.09,2.51-1.67,4.05-1.67
			c1.51,0,2.89,0.56,4,1.58l0.09,0.08l0.08,0.09c0.25,0.27,0.47,0.56,0.66,0.86c0.3-0.21,0.62-0.39,0.96-0.55
			c1.37-0.62,2.86-0.68,4.29-0.21l0.12,0.04l0.12,0.05c1.39,0.59,2.46,1.61,3.08,2.99c0.4,0.89,0.57,1.84,0.51,2.79
			c0.87-0.5,1.85-0.77,2.89-0.77c1.51,0,2.89,0.56,3.99,1.58l0.09,0.09l0.09,0.09c1.02,1.11,1.57,2.48,1.57,3.99
			c0,0.47-0.05,0.93-0.16,1.37c0.35,0.07,0.69,0.17,1.03,0.3c1.46,0.52,2.58,1.57,3.22,2.99c0.64,1.41,0.68,2.95,0.11,4.38
			c-0.31,0.86-0.8,1.61-1.45,2.21c0.94,0.26,1.79,0.77,2.5,1.5c1.11,1.07,1.71,2.49,1.71,4.05c0,1.55-0.59,2.97-1.71,4.05
			c-0.36,0.37-0.75,0.68-1.17,0.93c0.23,0.32,0.43,0.66,0.6,1.03c0.63,1.4,0.69,2.94,0.15,4.37c-0.55,1.46-1.59,2.59-3.02,3.24
			c-0.79,0.36-1.62,0.53-2.45,0.51c0.42,0.81,0.64,1.72,0.64,2.67c0,1.54-0.58,2.96-1.66,4.04c-1.11,1.11-2.52,1.71-4.09,1.71
			c-0.53,0-1.04-0.07-1.53-0.2c-0.05,0.4-0.14,0.8-0.27,1.19l-0.04,0.12l-0.05,0.12c-0.59,1.39-1.61,2.46-2.99,3.08
			c-1.4,0.63-2.94,0.69-4.37,0.15c-0.82-0.31-1.53-0.77-2.12-1.37c-0.26,0.77-0.69,1.49-1.27,2.11l-0.09,0.09l-0.09,0.09
			c-1.11,1.02-2.48,1.58-3.99,1.58c-1.54,0-2.96-0.58-4.04-1.67c-0.36-0.36-0.67-0.76-0.92-1.18c-0.38,0.31-0.8,0.57-1.26,0.78
			c-1.41,0.64-2.95,0.68-4.38,0.11c-1.46-0.52-2.58-1.57-3.22-2.98c-0.37-0.83-0.54-1.7-0.51-2.57c-0.75,0.36-1.58,0.55-2.46,0.55
			c-1.55,0-2.97-0.59-4.05-1.71c-1.11-1.08-1.71-2.49-1.71-4.05c0-0.45,0.05-0.89,0.15-1.31c-0.5-0.05-1-0.17-1.49-0.36
			c-1.44-0.54-2.55-1.6-3.18-3c-0.63-1.4-0.69-2.93-0.15-4.37c0.35-0.92,0.89-1.71,1.6-2.33c-0.82-0.28-1.57-0.76-2.22-1.4
			c-1.09-1.09-1.67-2.51-1.67-4.05c0-1.54,0.58-2.96,1.67-4.05C242.71,257.7,243.02,257.45,243.34,257.23L243.34,257.23z"/>
		<circle class="st16" cx="270.26" cy="262.04" r="22.4"/>
		<g transform="translate(-90 -200)">
			<g>
				<path class="st17" d="M360.26,447.17c-8.21,0-14.87,6.66-14.87,14.87c0,8.21,6.66,14.87,14.87,14.87s14.87-6.66,14.87-14.87
					C375.13,453.82,368.48,447.17,360.26,447.17z M372.85,462.04c0,2.48-0.73,4.8-1.98,6.75l-9.46-8.41v-10.87
					C367.81,450.09,372.85,455.49,372.85,462.04z M359.12,449.51v10.87l-9.46,8.41c-1.25-1.95-1.98-4.27-1.98-6.75
					C347.68,455.49,352.72,450.09,359.12,449.51z M351.07,470.6l8.05-7.16v11.12C355.95,474.27,353.12,472.8,351.07,470.6z
					 M361.41,474.56v-11.12l8.05,7.16C367.41,472.8,364.58,474.27,361.41,474.56z"/>
			</g>
		</g>
	</g>
	<g>
		<path class="st15" d="M323.17,258.46c0.81,1.01,1.24,2.25,1.24,3.58c0,1.54-0.58,2.96-1.66,4.04c-0.1,0.1-0.21,0.2-0.31,0.29
			c0.07,0.02,0.13,0.05,0.2,0.07c1.44,0.54,2.55,1.6,3.18,3c0.53,1.17,0.66,2.44,0.36,3.67c1.29,0.12,2.46,0.66,3.43,1.55l0.09,0.09
			l0.09,0.09c1.02,1.11,1.58,2.49,1.58,3.99c0,0.07,0,0.14,0,0.21c0.03-0.01,0.06-0.03,0.09-0.04c1.37-0.62,2.87-0.68,4.29-0.2
			l0.12,0.04l0.11,0.05c1.2,0.51,2.17,1.34,2.81,2.45c1.02-0.84,2.28-1.29,3.63-1.29c1.51,0,2.89,0.56,3.99,1.58l0.09,0.08
			l0.05,0.06c0.02-0.05,0.04-0.11,0.06-0.16c0.54-1.44,1.6-2.55,3-3.18c1.25-0.56,2.6-0.67,3.91-0.32c0.15-1.22,0.68-2.34,1.54-3.26
			l0.08-0.09l0.09-0.08c1.11-1.02,2.49-1.58,3.99-1.58c0.03,0,0.06,0,0.1,0c-0.05-0.1-0.1-0.2-0.15-0.3
			c-0.62-1.37-0.68-2.87-0.21-4.29l0.04-0.12l0.05-0.12c0.51-1.22,1.37-2.19,2.5-2.83c-0.74-0.97-1.12-2.14-1.12-3.39
			c0-1.55,0.59-2.97,1.71-4.05c0.07-0.07,0.13-0.13,0.2-0.2c-0.18-0.05-0.35-0.11-0.52-0.18c-1.46-0.52-2.58-1.57-3.22-2.98
			c-0.54-1.19-0.65-2.48-0.33-3.72c-1.13-0.19-2.17-0.7-3.03-1.5l-0.09-0.08l-0.08-0.09c-1.03-1.11-1.58-2.49-1.58-4
			c0-0.15,0.01-0.29,0.02-0.44c-0.17,0.1-0.35,0.19-0.53,0.27c-1.37,0.62-2.86,0.68-4.29,0.21l-0.12-0.04l-0.12-0.05
			c-1.11-0.47-2.02-1.23-2.66-2.21c-0.98,0.69-2.12,1.06-3.35,1.06c-1.54,0-2.96-0.58-4.05-1.67c-0.14-0.14-0.26-0.28-0.38-0.42
			c-0.03,0.13-0.07,0.26-0.11,0.38l-0.04,0.12l-0.05,0.12c-0.59,1.38-1.61,2.46-2.99,3.08c-1.11,0.5-2.32,0.64-3.49,0.41
			c-0.17,1.19-0.69,2.27-1.52,3.17l-0.09,0.09l-0.09,0.09c-1.11,1.02-2.49,1.58-3.99,1.58c-0.18,0-0.36-0.01-0.54-0.02
			c0.06,0.11,0.11,0.22,0.16,0.33c0.62,1.37,0.68,2.87,0.21,4.29l-0.04,0.12l-0.05,0.12C324.89,256.92,324.14,257.82,323.17,258.46
			L323.17,258.46z M315.5,257.23c-0.29-0.36-0.53-0.77-0.73-1.21c-0.64-1.42-0.68-2.96-0.13-4.42c0.54-1.44,1.6-2.55,3-3.18
			c0.93-0.42,1.91-0.58,2.89-0.5c-0.43-0.81-0.66-1.72-0.66-2.69c0-1.57,0.6-2.98,1.71-4.09c1.09-1.09,2.51-1.67,4.05-1.67
			c0.38,0,0.76,0.04,1.13,0.11c0.06-0.41,0.17-0.83,0.32-1.23c0.54-1.44,1.6-2.55,2.99-3.18c1.37-0.62,2.86-0.68,4.29-0.21
			l0.12,0.04l0.12,0.05c0.91,0.38,1.68,0.96,2.28,1.69c0.26-0.96,0.77-1.82,1.5-2.56c1.09-1.09,2.51-1.67,4.05-1.67
			c1.51,0,2.89,0.56,4,1.58l0.09,0.08l0.08,0.09c0.25,0.27,0.47,0.56,0.66,0.86c0.3-0.21,0.62-0.39,0.96-0.55
			c1.37-0.62,2.86-0.68,4.29-0.21l0.12,0.04l0.12,0.05c1.39,0.59,2.46,1.61,3.08,2.99c0.4,0.89,0.57,1.84,0.51,2.79
			c0.87-0.5,1.85-0.77,2.89-0.77c1.51,0,2.89,0.56,3.99,1.58l0.09,0.09l0.09,0.09c1.02,1.11,1.57,2.48,1.57,3.99
			c0,0.47-0.05,0.93-0.16,1.37c0.35,0.07,0.69,0.17,1.03,0.3c1.46,0.52,2.58,1.57,3.22,2.99c0.64,1.41,0.68,2.95,0.11,4.38
			c-0.31,0.86-0.8,1.61-1.45,2.21c0.94,0.26,1.79,0.77,2.5,1.5c1.11,1.07,1.71,2.49,1.71,4.05c0,1.55-0.59,2.97-1.71,4.05
			c-0.36,0.37-0.75,0.68-1.17,0.93c0.23,0.32,0.43,0.66,0.6,1.03c0.63,1.4,0.69,2.94,0.15,4.37c-0.55,1.46-1.59,2.59-3.02,3.24
			c-0.79,0.36-1.62,0.53-2.45,0.51c0.42,0.81,0.64,1.72,0.64,2.67c0,1.54-0.58,2.96-1.66,4.04c-1.11,1.11-2.52,1.71-4.09,1.71
			c-0.53,0-1.04-0.07-1.53-0.2c-0.05,0.4-0.14,0.8-0.27,1.19l-0.04,0.12l-0.05,0.12c-0.59,1.39-1.61,2.46-2.99,3.08
			c-1.4,0.63-2.94,0.69-4.37,0.15c-0.82-0.31-1.53-0.77-2.12-1.37c-0.26,0.77-0.69,1.49-1.27,2.11l-0.09,0.09l-0.09,0.09
			c-1.11,1.02-2.48,1.58-3.99,1.58c-1.54,0-2.96-0.58-4.04-1.67c-0.36-0.36-0.67-0.76-0.92-1.18c-0.38,0.31-0.8,0.57-1.26,0.78
			c-1.41,0.64-2.95,0.68-4.38,0.11c-1.46-0.52-2.58-1.57-3.22-2.98c-0.37-0.83-0.54-1.7-0.51-2.57c-0.75,0.36-1.58,0.55-2.46,0.55
			c-1.55,0-2.97-0.59-4.05-1.71c-1.11-1.08-1.71-2.49-1.71-4.05c0-0.45,0.05-0.89,0.15-1.31c-0.5-0.05-1-0.17-1.49-0.36
			c-1.44-0.54-2.55-1.6-3.18-3c-0.63-1.4-0.69-2.93-0.15-4.37c0.35-0.92,0.89-1.71,1.6-2.33c-0.82-0.28-1.57-0.76-2.22-1.4
			c-1.09-1.09-1.67-2.51-1.67-4.05c0-1.54,0.58-2.96,1.67-4.05C314.86,257.7,315.17,257.45,315.5,257.23L315.5,257.23z"/>
		<circle class="st16" cx="342.42" cy="262.04" r="22.4"/>
		<g transform="translate(-90 -200)">
			<g>
				<path class="st17" d="M432.42,447.17c-8.21,0-14.87,6.66-14.87,14.87c0,8.21,6.66,14.87,14.87,14.87
					c8.21,0,14.87-6.66,14.87-14.87C447.29,453.82,440.63,447.17,432.42,447.17z M445,462.04c0,2.48-0.73,4.8-1.98,6.75l-9.46-8.41
					v-10.87C439.97,450.09,445,455.49,445,462.04z M431.28,449.51v10.87l-9.46,8.41c-1.25-1.95-1.98-4.27-1.98-6.75
					C419.84,455.49,424.87,450.09,431.28,449.51z M423.22,470.6l8.05-7.16v11.12C428.11,474.27,425.28,472.8,423.22,470.6z
					 M433.56,474.56v-11.12l8.05,7.16C439.56,472.8,436.73,474.27,433.56,474.56z"/>
			</g>
		</g>
	</g>
</g>
<g>
	<g>
		<path class="st7" d="M257.89,362.69c3.24,5.03,1.05,12.21,1.05,12.21s-7.45-0.96-10.7-5.99c-3.24-5.03-1.05-12.21-1.05-12.21
			S254.65,357.66,257.89,362.69z M252.53,387.55c5.03-3.24,5.99-10.7,5.99-10.7s-7.19-2.19-12.21,1.05
			c-5.03,3.24-5.99,10.7-5.99,10.7S247.51,390.79,252.53,387.55z M231.26,353.26c0,0-2.19,7.19,1.05,12.21
			c3.24,5.03,10.7,5.99,10.7,5.99s2.19-7.19-1.05-12.21C238.71,354.22,231.26,353.26,231.26,353.26z M236.59,384.11
			c5.03-3.24,5.99-10.7,5.99-10.7s-7.19-2.19-12.21,1.05s-5.99,10.7-5.99,10.7S231.57,387.36,236.59,384.11z M215.32,349.82
			c0,0-2.19,7.19,1.05,12.21c3.24,5.03,10.7,5.99,10.7,5.99s2.19-7.19-1.05-12.21C222.77,350.79,215.32,349.82,215.32,349.82z
			 M193.87,361.81c0,0,3.53,6.63,9.38,7.89c5.85,1.26,11.8-3.33,11.8-3.33s-3.53-6.63-9.38-7.89
			C199.82,357.22,193.87,361.81,193.87,361.81z M220.65,380.68c5.03-3.24,5.99-10.7,5.99-10.7s-7.19-2.19-12.21,1.05
			c-5.03,3.24-5.99,10.7-5.99,10.7S215.62,383.92,220.65,380.68z"/>
		
			<rect x="316.35" y="331.09" transform="matrix(0.2108 -0.9775 0.9775 0.2108 -128.6243 622.2253)" class="st11" width="9.34" height="119.36"/>
		<path class="st17" d="M412.97,410.14c1.03-0.55,2-1.2,2.91-1.94c1.91,1.36,3.5,3.14,4.63,5.26c-1.98,1.36-4.21,2.22-6.53,2.55
			c-0.46-1.08-1.03-2.1-1.69-3.06c0.23-0.17,0.47-0.33,0.7-0.51l0.78-0.62l-0.41-0.91C413.24,410.65,413.1,410.4,412.97,410.14z
			 M416.22,404.32c-1.66-1.78-3.69-3.1-5.92-3.91c-0.89,1.19-1.9,2.26-3.03,3.18c1.7,1.18,3.18,2.66,4.38,4.37
			C413.37,407.06,414.92,405.83,416.22,404.32z M400.68,406.96c0.12,0.38,0.24,0.77,0.33,1.16l0.16,0.65l-0.44,0.5
			c-0.27,0.3-0.54,0.59-0.83,0.88c1.16,1.06,2.18,2.26,3.01,3.57c2.72-0.18,5.36-1.08,7.66-2.66c-1.32-2.46-3.25-4.48-5.58-5.88
			C403.65,405.95,402.2,406.55,400.68,406.96z M405.44,420.38c2.35,0.3,4.76,0.06,7.06-0.76c-0.45-1.94-1.27-3.74-2.39-5.33
			c-1.86,0.97-3.85,1.6-5.9,1.87C404.78,417.5,405.2,418.91,405.44,420.38z M397.96,411.81c-1.21,0.9-2.52,1.65-3.93,2.23
			c0.81,2.26,1.14,4.63,1,7.01c2.57,0.71,5.29,0.75,7.93,0.07C402.45,417.48,400.68,414.21,397.96,411.81z M399.72,404.58
			c3.52-0.89,6.59-2.98,8.71-5.96c-2.03-1.82-4.47-3.04-7.08-3.59c-0.97,2.17-2.35,4.13-4.1,5.77
			C398.24,401.95,399.06,403.23,399.72,404.58z M382.1,405.44c-1.15,7.36,3.19,14.52,10.24,16.9c0.45-2.9,0.06-5.82-1.15-8.53
			l-0.58-1.3l1.35-0.44c2.44-0.79,4.63-2.16,6.39-4c-0.72-2.43-2.03-4.67-3.84-6.48l-1-1.01l1.11-0.89c2.31-1.85,4-4.27,4.94-7.05
			c-7.35-1.13-14.5,3.25-16.86,10.31"/>
	</g>
	<g>
		<path class="st7" d="M366.37,356.7c0,0,2.19,7.19-1.05,12.21c-3.24,5.03-10.7,5.99-10.7,5.99s-2.19-7.19,1.05-12.21
			C358.91,357.66,366.37,356.7,366.37,356.7z M373.24,388.6c0,0-0.96-7.45-5.99-10.7c-5.03-3.24-12.21-1.05-12.21-1.05
			s0.96,7.45,5.99,10.7C366.06,390.79,373.24,388.6,373.24,388.6z M371.61,359.25c-3.24,5.03-1.05,12.21-1.05,12.21
			s7.45-0.96,10.7-5.99c3.24-5.03,1.05-12.21,1.05-12.21S374.85,354.22,371.61,359.25z M389.19,385.16c0,0-0.96-7.45-5.99-10.7
			c-5.03-3.24-12.21-1.05-12.21-1.05s0.96,7.45,5.99,10.7C382,387.36,389.19,385.16,389.19,385.16z M387.55,355.81
			c-3.24,5.03-1.05,12.21-1.05,12.21s7.45-0.96,10.7-5.99c3.24-5.03,1.05-12.21,1.05-12.21S390.8,350.79,387.55,355.81z
			 M407.9,358.48c-5.85,1.26-9.38,7.89-9.38,7.89s5.95,4.59,11.8,3.33c5.85-1.26,9.38-7.89,9.38-7.89S413.75,357.22,407.9,358.48z
			 M405.13,381.73c0,0-0.96-7.45-5.99-10.7c-5.03-3.24-12.21-1.05-12.21-1.05s0.96,7.45,5.99,10.7
			C397.94,383.92,405.13,381.73,405.13,381.73z"/>
		
			<rect x="287.87" y="331.09" transform="matrix(-0.2108 -0.9775 0.9775 -0.2108 -27.7959 759.0941)" class="st11" width="9.34" height="119.36"/>
		<path class="st17" d="M200.21,410.92l-0.41,0.91l0.78,0.62c0.23,0.18,0.46,0.34,0.7,0.51c-0.66,0.96-1.23,1.98-1.69,3.06
			c-2.32-0.33-4.55-1.19-6.53-2.55c1.13-2.12,2.72-3.91,4.63-5.26c0.91,0.74,1.88,1.39,2.91,1.94
			C200.46,410.4,200.33,410.65,200.21,410.92z M201.92,407.96c1.21-1.71,2.68-3.19,4.38-4.37c-1.13-0.92-2.14-1.99-3.03-3.18
			c-2.23,0.81-4.26,2.14-5.92,3.91C198.64,405.83,200.19,407.06,201.92,407.96z M208.57,405.17c-2.34,1.41-4.26,3.42-5.58,5.88
			c2.3,1.58,4.94,2.48,7.66,2.66c0.83-1.31,1.85-2.51,3.01-3.57c-0.28-0.28-0.56-0.57-0.83-0.88l-0.44-0.5l0.16-0.65
			c0.1-0.39,0.21-0.78,0.33-1.16C211.36,406.55,209.91,405.95,208.57,405.17z M209.36,416.16c-2.05-0.27-4.04-0.9-5.9-1.87
			c-1.12,1.59-1.93,3.39-2.39,5.33c2.29,0.82,4.7,1.06,7.06,0.76C208.37,418.91,208.78,417.5,209.36,416.16z M210.6,421.11
			c2.64,0.69,5.37,0.65,7.93-0.07c-0.14-2.37,0.19-4.74,1-7.01c-1.4-0.57-2.72-1.33-3.93-2.23
			C212.88,414.21,211.11,417.48,210.6,421.11z M216.31,400.8c-1.76-1.64-3.14-3.59-4.1-5.77c-2.61,0.54-5.04,1.76-7.08,3.59
			c2.13,2.99,5.2,5.08,8.71,5.96C214.5,403.23,215.32,401.95,216.31,400.8z M230.86,402.96c-2.35-7.06-9.5-11.44-16.86-10.31
			c0.93,2.78,2.62,5.2,4.94,7.05l1.11,0.89l-1,1.01c-1.8,1.82-3.12,4.05-3.84,6.48c1.75,1.83,3.95,3.21,6.39,4l1.35,0.44l-0.58,1.3
			c-1.2,2.71-1.59,5.63-1.15,8.53c7.05-2.38,11.39-9.54,10.24-16.9"/>
	</g>
</g>
<g>
	<path class="st11" d="M282.75,365.32h-12.98c-1.1,0-2-0.9-2-2v-37.3c0-1.1,0.9-2,2-2h12.98c1.1,0,2,0.9,2,2v37.3
		C284.75,364.42,283.85,365.32,282.75,365.32z"/>
	<path class="st11" d="M302.32,370.06h-12.98c-1.1,0-2-0.9-2-2v-37.3c0-1.1,0.9-2,2-2h12.98c1.1,0,2,0.9,2,2v37.3
		C304.32,369.16,303.42,370.06,302.32,370.06z"/>
	<path class="st11" d="M321.89,370.06h-12.98c-1.1,0-2-0.9-2-2v-37.3c0-1.1,0.9-2,2-2h12.98c1.1,0,2,0.9,2,2v37.3
		C323.89,369.16,322.99,370.06,321.89,370.06z"/>
	<path class="st11" d="M341.46,365.32h-12.98c-1.1,0-2-0.9-2-2v-37.3c0-1.1,0.9-2,2-2h12.98c1.1,0,2,0.9,2,2v37.3
		C343.46,364.42,342.56,365.32,341.46,365.32z"/>
</g>
<g>
	<g>
		<circle class="st18" cx="379.53" cy="284.64" r="2.71"/>
		<circle class="st18" cx="378.72" cy="295.84" r="4.12"/>
		<circle class="st18" cx="375.5" cy="308.73" r="5.28"/>
		<circle class="st18" cx="368.4" cy="323.9" r="7.39"/>
	</g>
	<g>
		<circle class="st18" cx="233.15" cy="284.64" r="2.71"/>
		<circle class="st18" cx="233.96" cy="295.84" r="4.12"/>
		<circle class="st18" cx="237.18" cy="308.73" r="5.28"/>
		<circle class="st18" cx="244.29" cy="323.9" r="7.39"/>
	</g>
</g>
<g>
	<g>
		<path class="st19" d="M289.78,294.8c-4.43,4.55-18.95,9.13-28.58,8.17c-9.03-0.91-10.93,12.72,1.66,10.74
			C273.77,311.99,287.81,301.15,289.78,294.8z"/>
		<path class="st15" d="M282.02,309.16c-1.7,3.46-8.69,8.08-13.89,8.53c-4.87,0.43-3.97,9.51,2.37,6.8
			C276,322.16,281.87,313.52,282.02,309.16z"/>
		<path class="st20" d="M284.45,311.68c-0.39,3.81,3.03,11.1,7.12,13.91c3.84,2.63-1.65,10.16-5.52,4.85
			C282.69,325.84,282.3,315.56,284.45,311.68z"/>
	</g>
	<g>
		<path class="st19" d="M322.91,294.8c4.43,4.55,18.95,9.13,28.58,8.17c9.03-0.91,10.93,12.72-1.66,10.74
			C338.92,311.99,324.87,301.15,322.91,294.8z"/>
		<path class="st15" d="M330.67,309.16c1.7,3.46,8.69,8.08,13.89,8.53c4.87,0.43,3.97,9.51-2.37,6.8
			C336.69,322.16,330.81,313.52,330.67,309.16z"/>
		<path class="st20" d="M328.23,311.68c0.39,3.81-3.03,11.1-7.12,13.91c-3.84,2.63,1.65,10.16,5.52,4.85
			C329.99,325.84,330.38,315.56,328.23,311.68z"/>
	</g>
</g>
<g>
	<path class="st0" d="M309.84,293.24c-0.95-0.95-2.19-1.4-3.43-1.39c-1.24-0.02-2.48,0.44-3.43,1.39l-10.18,10.13
		c-3.49,3.49-3.49,9.15,0,12.65c3.49,3.49,9.15,3.49,12.64,0l0.91-0.89l0.9,0.89c3.49,3.49,9.15,3.49,12.64,0
		c3.49-3.49,3.49-9.15,0-12.65L309.84,293.24z"/>
</g>
<g>
	<circle class="st14" cx="268.37" cy="342.22" r="3.15"/>
	<circle class="st14" cx="279.22" cy="342.22" r="3.15"/>
	<circle class="st14" cx="290.07" cy="342.22" r="3.15"/>
	<circle class="st14" cx="300.92" cy="342.22" r="3.15"/>
	<circle class="st14" cx="311.77" cy="342.22" r="3.15"/>
	<circle class="st14" cx="322.62" cy="342.22" r="3.15"/>
	<circle class="st14" cx="333.47" cy="342.22" r="3.15"/>
	<circle class="st14" cx="344.32" cy="342.22" r="3.15"/>
</g>
</svg>
